name Run_400 02_newCOP3_v24.mot
datacolumns 19
datarows 65
range 0.08 0.144
DataType=double
version=3
OpenSimVersion=4.3-2021-08-27-4bc7ad9
endheader
time	R_ground_force_vx	R_ground_force_vy	R_ground_force_vz	R_ground_force_px	R_ground_force_py	R_ground_force_pz	L_ground_force_vx	L_ground_force_vy	L_ground_force_vz	L_ground_force_px	L_ground_force_py	L_ground_force_pz	R_ground_torque_x	R_ground_torque_y	R_ground_torque_z	L_ground_torque_x	L_ground_torque_y	L_ground_torque_z
0.08	199.267563	1045.766357	-13.722382	0.494191	0	-0.253085	0	0	0	0	0	0	0	-0.423534	0	0	0	0
0.081	200.055206	1031.293335	-12.459857	0.492213	0	-0.253063	0	0	0	0	0	0	0	-0.612888	0	0	0	0
0.082	200.825943	1016.283081	-11.172497	0.490153	0	-0.253039	0	0	0	0	0	0	0	-0.803017	0	0	0	0
0.083	201.56015	1000.788696	-9.872890999999999	0.488011	0	-0.253014	0	0	0	0	0	0	0	-0.992878	0	0	0	0
0.08400000000000001	202.238754	984.851501	-8.572785	0.485786	0	-0.252988	0	0	0	0	0	0	0	-1.181414	0	0	0	0
0.08500000000000001	202.843613	968.506287	-7.283233	0.48348	0	-0.25296	0	0	0	0	0	0	0	-1.367565	0	0	0	0
0.08599999999999999	203.357788	951.783936	-6.014637	0.481092	0	-0.252931	0	0	0	0	0	0	0	-1.550284	0	0	0	0
0.08699999999999999	203.765839	934.713257	-4.776728	0.478622	0	-0.2529	0	0	0	0	0	0	0	-1.728543	0	0	0	0
0.08799999999999999	204.054001	917.3220209999999	-3.578509	0.476072	0	-0.252868	0	0	0	0	0	0	0	-1.901344	0	0	0	0
0.089	204.210327	899.637512	-2.42819	0.473441	0	-0.252834	0	0	0	0	0	0	0	-2.067732	0	0	0	0
0.09	204.224777	881.6868899999999	-1.333115	0.470731	0	-0.252798	0	0	0	0	0	0	0	-2.226803	0	0	0	0
0.091	204.089188	863.497437	-0.2997	0.467942	0	-0.25276	0	0	0	0	0	0	0	-2.377717	0	0	0	0
0.092	203.797272	845.096558	0.66662	0.465075	0	-0.252721	0	0	0	0	0	0	0	-2.519701	0	0	0	0
0.093	203.344498	826.512024	1.561443	0.462133	0	-0.252679	0	0	0	0	0	0	0	-2.652062	0	0	0	0
0.094	202.727966	807.7717290000001	2.381426	0.459115	0	-0.252634	0	0	0	0	0	0	0	-2.774195	0	0	0	0
0.095	201.946274	788.90387	3.124306	0.456024	0	-0.252587	0	0	0	0	0	0	0	-2.885585	0	0	0	0
0.096	200.99939	769.936768	3.788909	0.452862	0	-0.252536	0	0	0	0	0	0	0	-2.985816	0	0	0	0
0.097	199.888428	750.89856	4.375133	0.449629	0	-0.252482	0	0	0	0	0	0	0	-3.074577	0	0	0	0
0.098	198.615524	731.817505	4.883931	0.446329	0	-0.252424	0	0	0	0	0	0	0	-3.151659	0	0	0	0
0.099	197.183685	712.721497	5.317264	0.442963	0	-0.252362	0	0	0	0	0	0	0	-3.216963	0	0	0	0
0.1	195.596695	693.637878	5.678051	0.439533	0	-0.252295	0	0	0	0	0	0	0	-3.2705	0	0	0	0
0.101	193.858978	674.593384	5.970094	0.436041	0	-0.252222	0	0	0	0	0	0	0	-3.312388	0	0	0	0
0.102	191.97551	655.613892	6.197989	0.43249	0	-0.252144	0	0	0	0	0	0	0	-3.342855	0	0	0	0
0.103	189.951782	636.724182	6.367029	0.428882	0	-0.252059	0	0	0	0	0	0	0	-3.36223	0	0	0	0
0.104	187.793716	617.947815	6.483086	0.425219	0	-0.251967	0	0	0	0	0	0	0	-3.370946	0	0	0	0
0.105	185.507645	599.306946	6.552485	0.421504	0	-0.251866	0	0	0	0	0	0	0	-3.369529	0	0	0	0
0.106	183.100281	580.82196	6.581872	0.417739	0	-0.251756	0	0	0	0	0	0	0	-3.358597	0	0	0	0
0.107	180.578644	562.511841	6.578068	0.413926	0	-0.251636	0	0	0	0	0	0	0	-3.338849	0	0	0	0
0.108	177.950073	544.393433	6.547928	0.410068	0	-0.251505	0	0	0	0	0	0	0	-3.311059	0	0	0	0
0.109	175.222107	526.4820559999999	6.498192	0.406166	0	-0.251361	0	0	0	0	0	0	0	-3.276067	0	0	0	0
0.11	172.402466	508.790985	6.435346	0.402224	0	-0.251204	0	0	0	0	0	0	0	-3.234768	0	0	0	0
0.111	169.498947	491.331726	6.365477	0.398241	0	-0.251032	0	0	0	0	0	0	0	-3.188102	0	0	0	0
0.112	166.519333	474.114075	6.294154	0.394221	0	-0.250843	0	0	0	0	0	0	0	-3.137044	0	0	0	0
0.113	163.471283	457.146301	6.226312	0.390164	0	-0.250635	0	0	0	0	0	0	0	-3.082594	0	0	0	0
0.114	160.362228	440.43512	6.166151	0.386072	0	-0.250408	0	0	0	0	0	0	0	-3.025761	0	0	0	0
0.115	157.199219	423.986115	6.11706	0.381945	0	-0.250158	0	0	0	0	0	0	0	-2.967558	0	0	0	0
0.116	153.988861	407.803894	6.081562	0.377785	0	-0.249883	0	0	0	0	0	0	0	-2.908983	0	0	0	0
0.117	150.737213	391.892212	6.061276	0.37359	0	-0.249582	0	0	0	0	0	0	0	-2.851013	0	0	0	0
0.118	147.449646	376.254486	6.056916	0.369361	0	-0.249252	0	0	0	0	0	0	0	-2.794591	0	0	0	0
0.119	144.130905	360.893799	6.068303	0.365098	0	-0.248888	0	0	0	0	0	0	0	-2.740616	0	0	0	0
0.12	140.784943	345.813354	6.094409	0.360799	0	-0.248489	0	0	0	0	0	0	0	-2.689931	0	0	0	0
0.121	137.415039	331.01651	6.133429	0.356463	0	-0.248051	0	0	0	0	0	0	0	-2.643317	0	0	0	0
0.122	134.023788	316.507233	6.182858	0.352087	0	-0.24757	0	0	0	0	0	0	0	-2.601479	0	0	0	0
0.123	130.613159	302.290009	6.239612	0.34767	0	-0.24704	0	0	0	0	0	0	0	-2.565046	0	0	0	0
0.124	127.18454	288.370117	6.300142	0.34321	0	-0.246458	0	0	0	0	0	0	0	-2.534556	0	0	0	0
0.125	123.738899	274.753632	6.360575	0.338702	0	-0.245818	0	0	0	0	0	0	0	-2.510459	0	0	0	0
0.126	120.276833	261.447449	6.416852	0.334144	0	-0.245114	0	0	0	0	0	0	0	-2.493104	0	0	0	0
0.127	116.798683	248.459259	6.464878	0.329533	0	-0.244338	0	0	0	0	0	0	0	-2.482743	0	0	0	0
0.128	113.30468	235.797363	6.500668	0.324864	0	-0.243484	0	0	0	0	0	0	0	-2.479528	0	0	0	0
0.129	109.794998	223.470612	6.520481	0.320136	0	-0.242542	0	0	0	0	0	0	0	-2.483509	0	0	0	0
0.13	106.269905	211.488129	6.52096	0.315344	0	-0.241502	0	0	0	0	0	0	0	-2.494634	0	0	0	0
0.131	102.729828	199.859131	6.499246	0.310487	0	-0.240353	0	0	0	0	0	0	0	-2.512757	0	0	0	0
0.132	99.175476	188.59259	6.453086	0.305562	0	-0.239082	0	0	0	0	0	0	0	-2.537636	0	0	0	0
0.133	95.607895	177.697067	6.380919	0.300571	0	-0.237675	0	0	0	0	0	0	0	-2.568943	0	0	0	0
0.134	92.028587	167.180298	6.281945	0.295514	0	-0.236115	0	0	0	0	0	0	0	-2.606268	0	0	0	0
0.135	88.43955200000001	157.049088	6.156172	0.290395	0	-0.234383	0	0	0	0	0	0	0	-2.649127	0	0	0	0
0.136	84.843391	147.308945	6.004437	0.285224	0	-0.232455	0	0	0	0	0	0	0	-2.69697	0	0	0	0
0.137	81.243362	137.963989	5.828413	0.280011	0	-0.230307	0	0	0	0	0	0	0	-2.749196	0	0	0	0
0.138	77.643417	129.016754	5.63057	0.274777	0	-0.227909	0	0	0	0	0	0	0	-2.805156	0	0	0	0
0.139	74.048271	120.468063	5.414135	0.269548	0	-0.225226	0	0	0	0	0	0	0	-2.864171	0	0	0	0
0.14	70.46341700000001	112.317078	5.183008	0.264362	0	-0.222216	0	0	0	0	0	0	0	-2.925539	0	0	0	0
0.141	66.89510300000001	104.561218	4.941657	0.259272	0	-0.218832	0	0	0	0	0	0	0	-2.988552	0	0	0	0
0.142	63.350353	97.196297	4.694994	0.254349	0	-0.215019	0	0	0	0	0	0	0	-3.052503	0	0	0	0
0.143	59.83691	90.216545	4.44823	0.249691	0	-0.210708	0	0	0	0	0	0	0	-3.116704	0	0	0	0
0.144	56.363148	83.614845	4.206707	0.245428	0	-0.205821	0	0	0	0	0	0	0	-3.180494	0	0	0	0
